<svg xmlns="http://www.w3.org/2000/svg" xmlns:xlink="http://www.w3.org/1999/xlink" viewBox="0 0 4680 3120"><defs><linearGradient id="f" x1="2340" x2="2340" y1="2171.94" y2="217.09" gradientUnits="userSpaceOnUse"><stop offset="0" stop-color="#c4178d"/><stop offset=".44" stop-color="#3c008b"/><stop offset="1" stop-color="#1b0033"/></linearGradient><linearGradient id="a" x1="3526.04" x2="3665.48" y1="1606.26" y2="1606.26" gradientUnits="userSpaceOnUse"><stop offset="0" stop-color="#fffbff" stop-opacity="0"/><stop offset="1" stop-color="#fff"/></linearGradient><linearGradient id="g" x1="3580.76" x2="3665.48" y1="1606.26" y2="1606.26" xlink:href="#a"/><linearGradient id="h" x1="3580.76" x2="3665.48" y1="1687.95" y2="1687.95" xlink:href="#a"/><linearGradient id="i" x1="3526.04" x2="3595.76" y1="1688.23" y2="1688.23" xlink:href="#a"/><linearGradient id="j" x1="3556.72" x2="3634.8" y1="1243.27" y2="1243.27" xlink:href="#a"/><linearGradient id="k" x1="3587.36" x2="3634.8" y1="1243.27" y2="1243.27" xlink:href="#a"/><linearGradient id="l" x1="3587.36" x2="3634.8" y1="1289.01" y2="1289.01" xlink:href="#a"/><linearGradient id="m" x1="3556.72" x2="3595.76" y1="1289.17" y2="1289.17" xlink:href="#a"/><linearGradient id="n" x1="978.58" x2="1118.02" y1="1471.1" y2="1471.1" xlink:href="#a"/><linearGradient id="o" x1="1033.3" x2="1118.02" y1="1471.1" y2="1471.1" xlink:href="#a"/><linearGradient id="p" x1="1033.3" x2="1118.02" y1="1552.79" y2="1552.79" xlink:href="#a"/><linearGradient id="q" x1="978.58" x2="1048.3" y1="1553.07" y2="1553.07" xlink:href="#a"/><linearGradient id="r" x1="1139.21" x2="1217.3" y1="1246.45" y2="1246.45" xlink:href="#a"/><linearGradient id="s" x1="1169.86" x2="1217.3" y1="1246.45" y2="1246.45" xlink:href="#a"/><linearGradient id="t" x1="1169.86" x2="1217.3" y1="1292.2" y2="1292.2" xlink:href="#a"/><linearGradient id="u" x1="1139.21" x2="1178.25" y1="1292.36" y2="1292.36" xlink:href="#a"/><linearGradient id="c" x1="1041.84" x2="1777.89" y1="1979.54" y2="1979.54" gradientUnits="userSpaceOnUse"><stop offset=".01" stop-color="#e9a9f8"/><stop offset=".52" stop-color="#e49efb"/><stop offset="1" stop-color="#de90ff"/></linearGradient><linearGradient id="b" x1="1396.56" x2="1414.03" y1="1911.33" y2="2232.26" gradientUnits="userSpaceOnUse"><stop offset="0" stop-color="#fff"/><stop offset="1" stop-color="#fff" stop-opacity="0"/></linearGradient><linearGradient id="d" x1="1211.58" x2="1285.4" y1="1883.78" y2="3240.31" gradientUnits="userSpaceOnUse"><stop offset="0" stop-color="#fff"/><stop offset="1" stop-color="#fdfcff" stop-opacity="0"/></linearGradient><linearGradient id="v" x1="1465.25" x2="1482.85" y1="1909.29" y2="2232.74" xlink:href="#b"/><linearGradient id="w" x1="1462.48" x2="1480.09" y1="1911.19" y2="2234.65" xlink:href="#b"/><linearGradient id="x" x1="1041.84" x2="1502.68" y1="2137.78" y2="2137.78" xlink:href="#c"/><linearGradient id="e" x1="2594.71" x2="3370.41" y1="1788.3" y2="1788.3" gradientUnits="userSpaceOnUse"><stop offset="0" stop-color="#023672"/><stop offset="1"/></linearGradient><linearGradient id="y" x1="3145.08" x2="3359.83" y1="838.46" y2="838.46" xlink:href="#c"/><linearGradient id="z" x1="2929.51" x2="3359.83" y1="730.57" y2="730.57" xlink:href="#c"/><linearGradient id="A" x1="2944.08" x2="3314.6" y1="1765.91" y2="1767.07" xlink:href="#b"/><linearGradient id="B" x1="2944.08" x2="3314.6" y1="1808.11" y2="1809.27" xlink:href="#b"/><linearGradient id="C" x1="2944.67" x2="3121.69" y1="1850.61" y2="1851.16" xlink:href="#b"/><linearGradient id="D" x1="2944.67" x2="3121.69" y1="1892.82" y2="1893.37" xlink:href="#b"/><linearGradient id="E" x1="2660.2" x2="2895.82" y1="1818.52" y2="1818.52" gradientTransform="rotate(15.48 2778.317 1818.768)" xlink:href="#d"/><linearGradient id="H" x1="1292.25" x2="2067.95" y1="774.82" y2="774.82" xlink:href="#e"/><clipPath id="F"><circle cx="1641.13" cy="795.25" r="156.18" fill="#00c3e4" transform="rotate(-45 1641.133 795.25)" style="mix-blend-mode:multiply" opacity=".37"/></clipPath><clipPath id="G"><circle cx="1640.95" cy="799.31" r="227.54" fill="none" transform="rotate(-45 1640.953 799.305)"/></clipPath></defs><g data-name="2"><ellipse cx="2340" cy="1446.78" fill="url(#f)" rx="1587.16" ry="1031.14"/><ellipse cx="2379.29" cy="2536.25" fill="#7a75f6" rx="1168.6" ry="129.52"/><ellipse cx="2379.29" cy="2536.25" fill="none" stroke="#e6a4ff" stroke-miterlimit="10" stroke-width="4.35" rx="969.43" ry="92.8"/><ellipse cx="2379.29" cy="2536.25" fill="none" stroke="#e6a4ff" stroke-miterlimit="10" stroke-width="4.35" rx="677.67" ry="53.97"/><path fill="#1b3d9e" d="M2963.59 2648.42c-361.57 23.14-807 23.14-1168.6 0s-584.3-65.89-584.3-112.17v94.23c0 46.27 222.74 89 584.3 112.17s807 23.13 1168.6 0 584.3-65.9 584.3-112.17v-94.23c0 46.28-222.73 89.03-584.3 112.17Z"/><path fill="#00c3e4" d="M1306 974.86v534.31c0-52.37 188.66-100.71 495.42-128.45V846.41C1494.65 874.15 1306 922.49 1306 974.86Z" opacity=".5"/><path fill="#00c3e4" d="M1306 974.86v534.31c0 24.65 41.89 48.43 117.82 69.61v-534.31c-75.94-21.18-117.82-44.96-117.82-69.61Z" opacity=".5"/><path fill="#cb092c" d="M3043.26 429.18 2255.1 362.9c-79.81-6.71-150.77 62.24-158.49 154l-153.15 1821.41c-7.71 91.76 50.73 171.62 130.55 178.33l788.16 66.28c79.83 6.71 150.8-62.27 158.51-154l73.32-872.18 79.81-949.23c7.74-91.79-50.71-171.62-130.55-178.33Z"/><path fill="#fff" d="m2969.79 431.06-788.16-66.27c-79.81-6.71-150.77 62.24-158.49 154l-152.83 1817.64c-7.72 91.76 50.73 171.62 130.54 178.33L2789 2581c79.84 6.71 150.8-62.26 158.52-154l73-868.39 79.81-949.23c7.75-91.77-50.7-171.61-130.54-178.32Z"/><path fill="#fc476a" d="m2960.07 426.72-788.16-66.27c-79.81-6.71-150.77 62.24-158.49 154l-153.15 1821.41c-7.71 91.76 50.73 171.62 130.55 178.33l788.18 66.27c79.83 6.72 150.8-62.26 158.51-154l73.34-872.15 79.81-949.24c7.7-91.8-50.75-171.63-130.59-178.35Z"/><path fill="#fbd7e7" d="M3002.48 492.24a88.55 88.55 0 0 0-44.08-16.12l-148.08-12.45-51.89 86.71-47.34-4-247.94-20.86-108.51-9.12-33.84-93.91-155.46-13.07a88.89 88.89 0 0 0-96 81.13l-4.85 57.7-140.59 1671.44a88.92 88.92 0 0 0 81.15 96l472.35 39.72 320.71 27a88.9 88.9 0 0 0 96-81.14l23.24-276.42 55.65-660.7 66.6-792a88.87 88.87 0 0 0-37.12-79.91Z"/><path fill="#fce2ed" d="m2810.32 463.66-51.88 86.72-403.81-34-33.83-93.88-155.46-13.07a88.9 88.9 0 0 0-96 81.14L1933.6 2104.44a88.5 88.5 0 0 0 44.08 16.13l793.06 66.68a88.91 88.91 0 0 0 96-81.14l135.7-1613.86a88.41 88.41 0 0 0-44.08-16.13Z"/><path fill="#fff" d="M3002.55 492.06a88.5 88.5 0 0 0-44.08-16.13l-148.08-12.45-51.89 86.71-47.34-4C2777.71 755.62 2885.24 1090.8 2973 1364l66.6-792a88.86 88.86 0 0 0-37.05-79.94ZM2354.64 516.42l-34.13-93.92-155.45-13.07a88.9 88.9 0 0 0-96 81.13l408.1 1864.88 320.71 27a88.91 88.91 0 0 0 96-81.15l23.24-276.42-406.93-1495.25Z" opacity=".3"/><path fill="#f282a8" d="m2724.27 474-242.52-20.39a23.81 23.81 0 0 0-4 47.45l242.52 20.39a23.81 23.81 0 1 0 4-47.45ZM2396.54 446.41a23.81 23.81 0 1 0 21.73 25.72 23.81 23.81 0 0 0-21.73-25.72Z"/><path fill="#f06ea9" d="M3108.71 911a13.5 13.5 0 0 0-14.58 12.32l-29.4 349.6a13.5 13.5 0 0 0 12.32 14.58 13.5 13.5 0 0 0 14.58-12.32L3121 925.56a13.49 13.49 0 0 0-12.29-14.56ZM3073.48 1329.88a13.49 13.49 0 0 0-14.57 12.32l-11.12 132.19a13.49 13.49 0 1 0 26.89 2.26l11.12-132.19a13.5 13.5 0 0 0-12.32-14.58Z"/><path fill="#cb092c" d="M2419.32 2385.71a50 50 0 0 0-15.46-3.84c-32-2.69-60.42 25.54-63.57 63s20.19 70.08 52.15 72.77a50.64 50.64 0 0 0 23.82-3.79c21.23-8.81 37.43-31.49 39.76-59.25 2.62-31.09-13.02-58.83-36.7-68.89Z"/><path fill="#fc476a" d="M2416.33 2389.9c-22.68 2.06-42 25.3-44.47 55.17-2.74 32.61 15.54 60.77 40.86 62.89l.79.06c19.56-8.12 34.49-29 36.64-54.6 2.41-28.68-12.01-54.25-33.82-63.52Z"/><path fill="#05086b" d="M2147.62 539.46a4.92 4.92 0 0 1-3.81-1.8l-28-34.08 33.27-28.11a4.92 4.92 0 1 1 6.35 7.51l-25.86 21.85 21.83 26.59a4.91 4.91 0 0 1-3.79 8ZM2958.1 541.42a7.72 7.72 0 1 0 7.05 8.34 7.72 7.72 0 0 0-7.05-8.34ZM2955.86 568.09a7.72 7.72 0 1 0 7 8.34 7.72 7.72 0 0 0-7-8.34ZM2953.62 594.76a7.72 7.72 0 1 0 7 8.34 7.71 7.71 0 0 0-7-8.34Z"/><g style="mix-blend-mode:overlay" opacity=".46"><path fill="url(#a)" d="m3526.04 1625.61 69.72 125.25 69.72-125.25-65.25-163.95-74.19 163.95z"/><path fill="url(#g)" d="m3580.76 1628.81 15 122.05 69.72-125.25-65.25-163.95-19.47 167.15z" opacity=".5"/><path style="mix-blend-mode:multiply" fill="url(#h)" d="m3596.22 1750.28 69.26-124.67-84.72 3.2 15.46 121.47z" opacity=".33"/><path style="mix-blend-mode:multiply" fill="url(#i)" d="m3526.04 1625.61 69.72 125.25-15-122.05-54.72-3.2z" opacity=".44"/></g><g style="mix-blend-mode:overlay" opacity=".46"><path fill="url(#j)" d="m3556.72 1254.1 39.04 70.14 39.04-70.14-36.54-91.8-41.54 91.8z"/><path fill="url(#k)" d="m3587.36 1255.9 8.4 68.34 39.04-70.14-36.54-91.8-10.9 93.6z" opacity=".5"/><path style="mix-blend-mode:multiply" fill="url(#l)" d="m3596.02 1323.92 38.78-69.82-47.44 1.8 8.66 68.02z" opacity=".33"/><path style="mix-blend-mode:multiply" fill="url(#m)" d="m3556.72 1254.1 39.04 70.14-8.4-68.34-30.64-1.8z" opacity=".44"/></g><g style="mix-blend-mode:overlay" opacity=".46"><path fill="url(#n)" d="m978.58 1490.45 69.72 125.25 69.72-125.25-65.26-163.94-74.18 163.94z"/><path fill="url(#o)" d="m1033.3 1493.66 15 122.04 69.72-125.25-65.26-163.94-19.46 167.15z" opacity=".5"/><path style="mix-blend-mode:multiply" fill="url(#p)" d="m1048.76 1615.13 69.26-124.68-84.72 3.21 15.46 121.47z" opacity=".33"/><path style="mix-blend-mode:multiply" fill="url(#q)" d="m978.58 1490.45 69.72 125.25-15-122.04-54.72-3.21z" opacity=".44"/></g><g style="mix-blend-mode:overlay" opacity=".46"><path fill="url(#r)" d="m1139.21 1257.29 39.04 70.13 39.05-70.13-36.55-91.81-41.54 91.81z"/><path fill="url(#s)" d="m1169.86 1259.08 8.39 68.34 39.05-70.13-36.55-91.81-10.89 93.6z" opacity=".5"/><path style="mix-blend-mode:multiply" fill="url(#t)" d="m1178.51 1327.1 38.79-69.81-47.44 1.79 8.65 68.02z" opacity=".33"/><path style="mix-blend-mode:multiply" fill="url(#u)" d="m1139.21 1257.29 39.04 70.13-8.39-68.34-30.65-1.79z" opacity=".44"/></g><path fill="#fff" d="M2337.42 750.5c37.67 24.38 79.79 57.71 104.36 101.46 65.9 117.38 117.91 277.27 128.13 330.92 13.83 72.59-84.58 171.11-84.58 171.11s74.21-41.48 103.59-116.89-60.49-249.54-103.59-353.68-147.91-132.92-147.91-132.92ZM2513.94 1671.11c-4.14-19-35.12-182.46-38.48-209.23 0 0 20.95 253.87 42.32 278.78s287.68 321.85 287.68 321.85L2557.3 1759a202.64 202.64 0 0 1-43.36-87.89ZM2656.61 1190.31c1.42 44.2-44.77 121.57-44.77 121.57s42.35-47.13 56.75-89.41c26.25-77.07-84-286.23-84-286.23s70.71 213.31 72.02 254.07Z"/><path fill="#fff" d="M2594.71 1717.83c34.21 54 113.53 126 113.53 126s-125.71-153.69-149.59-245.07c0 0 1.85 65.07 36.06 119.07Z"/><path fill="#feb8c0" d="m2627.81 2166.86 66.91 84.24s18.74 18 50.79 8.33c31.7-9.59 43.17-71.48 43.17-71.48l-64.51-106.45Z"/><path fill="#ffc335" d="m2835.22 2234.19-8.65-10.36-.08-.08-12.32-14.75-3.34-4-14.91-17.84a7.1 7.1 0 0 0-12.13 2.14c-16.35 47.41-67.15 41.66-87.3 37.31a10 10 0 0 0-11.46 6.31c-6.39 17.07-21.07 54.8-29.26 64a94.59 94.59 0 0 1-21.5 17.76c-9.59 5.88-19.56 10.08-28.85 13.94-9.48 3.94-15.66 8.44-19.68 12.87a25.74 25.74 0 0 0-6.77 13.6 18.81 18.81 0 0 0 .49 8.45l99 8.57 34.46 3L2841 2262a13.77 13.77 0 0 0 1.45-19.13Z"/><path fill="#fff" d="M2634.27 2314.7c-9.59 5.88-19.56 10.08-28.85 13.94-9.48 3.94-15.66 8.44-19.68 12.87a27.34 27.34 0 0 0-5.74 9.49 22.85 22.85 0 0 0-1 4.14 21.44 21.44 0 0 0-.24 3 17.29 17.29 0 0 0 .72 5.37l99 8.57a35 35 0 0 0-1.42-14.85c-6.45-20.41-29.78-35.49-42.79-42.53Z"/><path fill="#e08f18" d="M2838.44 2237.41c-31.75 30.45-128.59 116.71-134.09 118.22-1.81.49-12.36 1.3-27.34 1.65-26.51.65-66.87-.08-97-6.31a22.85 22.85 0 0 0-1 4.14 21.44 21.44 0 0 0-.24 3c.26 2.82.68 5.11.72 5.37l99 8.57 34.46 3L2841 2262a13.77 13.77 0 0 0 1.45-19.13Z"/><path fill="#feb8c0" d="m2040.62 2373.8 3.39 131.46h105.34l-4.78-131.46h-103.95z"/><path fill="#ffc335" d="M2148.12 2480.24c-16.63 29.5-60.27 17.1-60.27 17.1s-27.11-35.6-45.53-24.81 2.63 31.29-21 49.63c-18.16 14-40.89 6-67.73 11.1a82.46 82.46 0 0 0-25.68 9.4c-20.84 11.79-29.11 28.36-32.37 41a59 59 0 0 0-1.84 18.34h271a126.08 126.08 0 0 0 .58-12.69c0-1.9-.14-3.76-.1-5.66.66-37.12-.07-114.86-17.06-103.41Z"/><path fill="#fff" d="M2158.92 2514.44a122.62 122.62 0 0 0-65.34 72.27c-1.13 3.31 4.11 4.72 5.23 1.44a117.39 117.39 0 0 1 62.85-69c3.17-1.47.42-6.15-2.74-4.71ZM2024.9 2513.9a3.44 3.44 0 0 1-1 .34h-.09c-2.62.41-2.62 4.15 0 4.76a35.76 35.76 0 0 1 15.68 8.29c2.53 2.28 6.3-1.47 3.75-3.75a41.39 41.39 0 0 0-18.34-9.64ZM2015.32 2519.15a3.53 3.53 0 0 1-1 .34h-.1c-2.61.41-2.61 4.15 0 4.76a35.65 35.65 0 0 1 15.68 8.29c2.54 2.28 6.3-1.47 3.76-3.75a41.39 41.39 0 0 0-18.34-9.64ZM2002.7 2524.61a3.59 3.59 0 0 1-1 .33h-.09c-2.61.41-2.61 4.15 0 4.76a35.91 35.91 0 0 1 15.68 8.29c2.54 2.28 6.3-1.46 3.75-3.75a41.18 41.18 0 0 0-18.34-9.63ZM1987.45 2527.12a3.74 3.74 0 0 1-1 .33h-.09c-2.61.41-2.61 4.15 0 4.76a35.76 35.76 0 0 1 15.68 8.29c2.53 2.28 6.3-1.47 3.75-3.75a41.27 41.27 0 0 0-18.34-9.63ZM1927.86 2542.66c-20.84 11.79-29.11 28.36-32.37 41h63.94c7.68-22.53 2-39.23-5.89-50.41a82.46 82.46 0 0 0-25.68 9.41Z"/><path fill="#e08f18" d="M1893.65 2602h271a126.08 126.08 0 0 0 .58-12.69v-5.66h-269.74a59 59 0 0 0-1.84 18.35Z"/><path fill="#9a142f" d="m2284 1239.48-172.4-2.38-70.84-1s-12.85 61.48-29.27 146.27c-27.18 140.35-64.12 344.58-68.7 439.48-8.13 169 44 649.74 44 649.74 60.63 15.65 161.42 26.79 222.3 11.75l-26.58-592.26 3.91-25.11Z"/><path fill="#7a0d22" d="m2119.54 1559.43 66.86 306.56 97.62-626.51-172.4-2.38 7.92 322.33z"/><path fill="#9a142f" d="m2415.25 1210.83-325.58 21.42s67 397.16 111.08 570C2236 1940.56 2578 2262.3 2578 2262.3c70.54-32.72 171.44-113.87 208.82-159.9l-317.61-354.49Z"/><path fill="#bf2640" d="m2072.07 1853.67.06-.47v-.45Z"/><path fill="#bf2640" d="m2087.29 1737.75 2.94-23.2 5.88-46.4 5.74-46.41q2.88-23.21 5.64-46.43 5.6-46.44 10.76-92.93-7.45 46.17-14.45 92.42-3.57 23.12-7 46.25l-6.87 46.27-6.73 46.28-3.36 23.14-3.28 23.15c-4.35 30.87-8.81 61.73-13 92.63l-.06.45v.47l5.28 66.31 5.5 66.29c3.61 44.19 7.52 88.37 11.36 132.54s7.95 88.34 12.17 132.48 8.5 88.29 13.22 132.4c-2.49-44.29-5.4-88.54-8.41-132.79s-6.22-88.47-9.46-132.7-6.67-88.44-10.27-132.64l-5.32-66.3-5.49-65.83-.06.47v-.92.45c4.18-30.74 8.1-61.51 12.14-92.26ZM2366.66 1927.18l-.29-.73-.52-.59.81 1.32z"/><path fill="#bf2640" d="m2492.32 2068.25-42-47.57-83.91-94.23.29.74-.81-1.33.52.59-21-53.49-21.41-54.19c-14.32-36.1-28.59-72.22-43.08-108.25s-29-72.07-43.57-108.06-29.35-71.92-44.35-107.75c13.26 36.52 26.84 72.9 40.43 109.29s27.34 72.7 41.2 109 27.76 72.54 41.69 108.79l21 54.32 21.1 54.29.29.74.53.59 84.66 94.62 42.51 47.15q21.26 23.58 42.58 47.09s63.67 67.57 92.62 98.47c-27.43-32.25-87.37-103.15-87.37-103.15q-20.86-23.91-41.92-47.66Z"/><path fill="#bf2640" d="M2193 1494.71c-29.15-7.47-59.39-14.06-89.84-16.62-2.34-.2-3.2 2.9-.87 3.39 29.67 6.22 60.19 10.29 90.27 15a.9.9 0 1 0 .44-1.77ZM2146.61 1299.86a.73.73 0 0 0-1.45-.08c-3.43 28.12-3.31 56.33-.91 84.53 1.28 15.11 3.28 30.12 5.77 45.08 1.13 6.76 3.69 15.11 3 21.91-.59 5.66-2.51 9.35-6.26 10.23-22.42 5.21-32.82-66.25-34-79.18-2.51-27.85-4.41-54.07-4.21-83.87 0-.93-1.52-.74-1.58.13-2.83 36.19-2.56 74.82 4.18 110.59 2.42 12.82 15.22 59.69 35 56.78 19.44-2.86 10.08-30.84 7.27-49.43-5.82-38.67-6.85-77.64-6.81-116.69Z"/><path fill="#bf2640" d="M2146.14 1463.45c-1.25-3-5.75-1.36-4.7 1.71 1.57 4.63 3.37 9.18 5.08 13.76 1.47 3.95 2.58 8.51 5.21 11.85.42.53 1.46.45 1.55-.33.45-4.07-1-8.28-2.09-12.18a120.72 120.72 0 0 0-5.05-14.81ZM2410 1491c-12.19-3.13-25.23-4.12-37.67-6.09-10-1.59-20-3.36-30-5.55-18.7-4.12-37.63-10.37-52.93-22.28-17.22-13.41-26-33.76-34.32-53.31q-7.41-17.42-15.22-34.66c-2.51-5.58-5-11.15-7.62-16.69-3-6.49-7.18-13.25-9.4-20-.32-1-1.92-.46-1.52.46 2 4.52 2.8 9.67 4.24 14.42 1.69 5.6 32.7 84.26 47.65 104.23 20.72 27.67 93.12 42.28 134.64 43.26 1.85-.04 4.15-3.33 2.15-3.79ZM2208.78 2432.79c-17.75-3.16-142.89-3.59-161.93-3.64-38.92-.09-27.75.36-66.66.7a.57.57 0 0 0 0 1.13c38.89 1.28 27.71 1.46 66.62 2.31 19 .42 144.15 3 162 .29a.41.41 0 0 0-.03-.79ZM2746.13 2062.61c-17.38 11.53-131.88 102.46-149.3 116.3-35.59 28.29-25.21 20.36-60.65 48.84-.66.54-.27 1 .41.52 36-27.76 25.86-19.54 61.71-47.49 17.55-13.68 132.82-103.62 148.11-117.81.34-.32.1-.61-.28-.36Z"/><path fill="#feb8c0" d="M1972.55 990.59c-48.68 26.53-161.85 18.84-173 16.4-9.6-2.1-58.64-17.47-89.89-30.74-4.27-10.38-11-26-16.34-34-8.37-12.73-57-48.66-65.38-38.59-10.79 13 13.21 39.27 26.64 50.6 0 0-.62.76-1.63 2.12-18.14-11.28-36.84-23-38.59-24.22-15.24-11.1-32.81-43.37-45.9-37.72-10.87 4.69.49 20.91.49 20.91s-14.32-17.88-23.5-8.32 2.39 27.84 2.39 27.84-16.75-15-25.22-4.79 4 27.08 4 27.08-11.07-9.26-18.51 1.54 27.63 45.24 40.61 56.26c11.89 10.1 65.9 36.93 84.14 45.24a6.36 6.36 0 0 0 1 .83c32.26 21.86 109.77 47.22 173.22 49.61 52.38 2 181.68-61.39 200.26-88.87 13.06-19.4 9.07-55.07-34.79-31.18Z"/><path fill="#7a75f6" d="M2463.25 969.33c-16.06-38.61-31.61-71.66-42.33-90.66-16.86-29.89-45-53.65-73.34-68.33a157.43 157.43 0 0 0-38.43-14.26c-13.11-2.84-25-3.1-34.44-.41-36.57-15.86-91.63-8-103 3a186.07 186.07 0 0 0-29.82-.58c-22.09 1.31-43.92 6.4-60.81 15q-3.57 1.8-6.83 3.83c-66.94 41.68-152.71 153.89-163.34 156.75a7.19 7.19 0 0 1-2.51 0c-21.75-2.48-149-52.08-149-52.08l-16.44 33-65.79 131.8-17.67 35.41s219 84.75 304.19 37.1c31.2-17.42 50.17-37.74 78.26-87.83-9.54 80.12-10.77 149.68-20.56 200.95a399.58 399.58 0 0 0 214.33 62h1.27l36.22 77.26c2.3-1.25 237.63-128.3 255.49-188.2 12.57-42.19-27.84-163.21-65.48-253.72Z"/><path fill="#4b49d1" d="M2274.71 795.67c-36.57-15.86-91.63-8-103 3a186.07 186.07 0 0 0-29.82-.58c-3.31 24.9-10.6 105.38 31.68 113.42 47 8.94 143.32-44.77 135.57-115.46-13.14-2.81-25.03-3.05-34.43-.38Z"/><path fill="#feb8c0" d="M2162.46 716.93s8.32 41.38 5.17 74.91a43.17 43.17 0 0 1-1.52 7.82c-.07.36-.22.79-.29 1.29-3.76 14.79-12.9 76.66 22.12 82.23 22.37 3.56 73.86-33.15 96.11-66.5 1.51-2.29 0-27.93-.25-59.16-.1-19 .22-40.07 1.91-59.31Z"/><path fill="#fe8b90" d="M2167.67 791.86a51.17 51.17 0 0 1-1.54 7.81 11 11 0 0 0-.32 1.29c3.77.87 7.81 2.17 12.37 1.74 98.61-9.26 101.79-79 107.53-104.49l-123.29 18.7s8.33 41.37 5.25 74.95Z"/><path fill="#feb8c0" d="M2171.42 488.92c-37.42 19.92-92.89 174.69-67.7 230.55 26 57.62 98.29 64.35 147.93 31.1 34.24-22.94 74.7-142.42 68-186.82-9.98-65.59-93.13-104.17-148.23-74.83Z"/><path fill="#662210" d="M2341.58 503a62.11 62.11 0 0 0-17.66.51s-2.67-12.29-8-19.19-23-23.15-27-18.58 4.56 20.83 4.56 20.83c-21-15.79-60.34-36.75-105.41-33.39-43.56 3.24-71.57 22.22-80.81 52.86s1.77 56.28 40.18 58.88c39.63 2.69 100.92-41.62 127.24-14.2 12.15 12.66-6 55.21.9 81.94 2.81 10.86 19.69 49.47 29.76 48.84 7.84-.49 47.44-96.7 49.37-117.43s-14.54-46.33-14.54-46.33c9.83.23 23.93-.52 23.41-2.87s-12.26-10.93-22-11.87Z"/><path fill="#662210" d="M2336.56 514.91c-.32-.23-.82.21-.51.53 8.74 8.75 15.61 18.71 18.59 30.89 3.46 14.17 1.41 29-2.75 42.8-8.09 26.82-23.24 50.57-36.68 74.87-.39.71.8 1.4 1.24.72 15.89-24.84 32.18-51.88 39.6-80.65 6.33-24.53 2.68-53.54-19.49-69.16ZM2277 540.72a94.25 94.25 0 0 0-35-.29c-11 1.94-20.83 8-30.94 12.57-22.69 10.24-47.29 17.65-72.38 14.24a.25.25 0 0 0-.06.5c22.83 4.59 45.86-.59 67.07-9.27 10.7-4.38 21-11 32.14-14.07 12.69-3.47 26-2.31 38.92-1.61a1 1 0 0 0 .25-2.07ZM2222.58 454c-16.1-4.29-32.86-6.87-49.54-5.4-28.78 2.53-56.28 18.72-65.11 47.43-4.47 14.56-4.12 30.92 2.52 44.78a.81.81 0 0 0 1.48-.64c-9.81-26.44-2.93-57.11 20.17-74.36 24.81-18.52 57.68-17.65 86.45-10.85 18.1 4.28 35.2 11.21 52 19.14a.11.11 0 0 0 .1-.19c-14.87-9.06-31.3-15.48-48.07-19.91Z"/><path fill="#231f20" d="M2189.91 631.58c-11.33-3.89-21.59 22.81-9.26 27 12.52 4.33 22.78-22.37 9.26-27ZM2133 610.14c-12.91-6.12-24.2 20.16-12.24 25.83 11.81 5.58 23.11-20.7 12.24-25.83ZM2206.77 607.2c-4.24-3.4-9.3-6-14.67-4-2.3.86-4.19 4-3.53 6.48 1.23 4.54 4.24 6.55 7.63 9.51a113.64 113.64 0 0 0 8.94 7.61c4.34 3 11.26-.6 10.06-6.17a22 22 0 0 0-8.43-13.43ZM2142.86 582.28a22 22 0 0 0-15.58 3c-4.89 2.93-2.83 10.48 2.36 11.56a111.72 111.72 0 0 0 11.67 1.33c4.48.46 8 1.28 12.16-.92 2.22-1.18 3.26-4.74 2.32-7-2.2-5.25-7.55-7.2-12.93-7.97Z"/><path fill="#804233" d="M2141.28 691.76s2.72 9.79 9.4 15.51a16.07 16.07 0 0 0 8.91 4.08c7.27.8 9.76-5.2 10.54-10.85a38.23 38.23 0 0 0 .09-9.07 46.33 46.33 0 0 1-28.94.33Z"/><path fill="#d82946" d="M2150.68 707.27a16.07 16.07 0 0 0 8.91 4.08c7.27.8 9.76-5.2 10.54-10.85-7.35-1.99-16.21.12-19.45 6.77Z"/><path fill="#703e29" d="M2158.65 614.14c-19.31 21.6-23.12 31.22-37.3 55.76-1.8 3.05 21.78 6.32 26.15 6.77s4.37-4.69-4.19-6.85a130.06 130.06 0 0 0-14.13-2.38c13.12-24.11 18.1-28.13 30.8-52.32a.84.84 0 0 0-1.33-.98Z"/><path fill="#e77b79" d="M2207.57 669.57c-10.65-.55-19.65 6.07-20.1 14.79s7.81 16.23 18.47 16.78 19.65-6.07 20.1-14.78-7.81-16.24-18.47-16.79ZM2112.48 638.21c-4.71-.83-9.75 5.47-11.26 14.06s1.07 16.24 5.78 17.07 9.75-5.47 11.26-14.07-1.08-16.27-5.78-17.06Z" opacity=".7"/><path fill="#feb8c0" d="M2329.29 637.88C2313 625 2278.7 660 2278.7 660l-12.7 32.63s4.41 20.65 26.8 16.33 52.8-58.21 36.49-71.08Z"/><path fill="#fe8b90" d="M2320.2 653.11c-20.56-1.49-39.62 22.44-42.4 41.35l-.18.32c-.76 1.44 1.51 2.54 2.42 1.34 2.74-3.62 5.45-7.63 8.92-10.58 4.9-4.17 9.45-4.49 15.29-2.18.4.16.87-.38.53-.72-6.45-6.46-12.94-4.46-18.25.27 7.82-13.3 17.9-25.7 33.68-29.22a.29.29 0 0 0-.01-.58Z"/><path fill="#fff" stroke="#000" stroke-miterlimit="10" stroke-width="6.65" d="M2084.15 902.12c-.33.66-.68 1.4-1 2.2.48-1.09.85-1.84 1-2.2Z"/><path fill="#7a75f6" d="M2074.26 817c-66.94 41.68-152.71 153.89-163.34 156.75a7.19 7.19 0 0 1-2.51 0c-21.75-2.48-149-52.08-149-52.08l-16.45 33-65.79 131.8-17.67 35.41s219 84.75 304.19 37.1c31.2-17.42 50.17-37.74 78.26-87.83 0 0 34-136.06 41.16-166.77 0 0 20-53.31-2-91.19q-3.59 1.74-6.85 3.81Z"/><path fill="#fff" d="M1743 954.61c61.37 18.63 149.52 19.18 165.43 19.12-21.75-2.48-149-52.08-149-52.08Z" opacity=".2"/><path fill="#4b49d1" d="M1908.41 1130.07c-72.34 1.58-231.22-43.66-231.22-43.66l-17.67 35.41s219 84.75 304.19 37.1c31.2-17.42 50.17-37.74 78.26-87.83 0 0 27.32-134.59 41.12-166.68-11.64 24.96-79.77 223.59-174.68 225.66Z"/><path fill="#feb8c0" d="M2429.06 1145.47c6.09 53.68-135.62 73.29-136.16 78.57-.36 3.6-56.39 26.48-90.81 41.79-13.66-3.82-30.37-8.38-43.78-11.63-15.42-3.75-42.43-7.81-55-5.38-18.83 3.63-95.25 30.86-89 49.54 3.59 10.78 30.41 1.76 49.35-6.18-18.62 9.38-43.36 24.63-36.63 36.88 4.41 8 18.59 4.7 33.57-1.84-9.55 7.58-15.51 15.69-10.35 22.34 5.43 7 24.59.4 41.88-7.65-11.75 7.65-21.32 16.49-16.63 23.12 11.31 16 70.85-15.17 70.85-15.17 30.78 30.92 58.7 33.61 79.56 31.24a3.33 3.33 0 0 0 1.72 0l1.13-.34c32.91-10.13 132.23-51.72 173.2-99.14 25.22-29.18 100-107.08 60.32-162.38-16.63-23.1-40.79-40.4-33.22 26.23Z"/><path fill="#fe8b90" d="M2101.73 1274.27c-50.16 15.75-69.94 38.84-69.29 38.33 15.35-12 42.35-25 49.95-28.49s11.9-6 19.48-9.56c.19-.08.05-.34-.14-.28ZM2118 1300.12c-24.23 5.92-49.49 20.44-57.41 26.81-.64.52-.27.65.47.29 9.54-4.74 47.33-22.62 57.05-26.87.16-.07.05-.27-.11-.23ZM2133.51 1321.43c-21.27 6.92-30.1 12.17-43.83 22.07-.66.48-.08.69.65.3 14.44-7.61 25.71-13.68 43.37-21.83.3-.13.14-.64-.19-.54Z"/><path fill="#4b49d1" d="m2270.94 908.06 16.96 210.14-144.92 63.08 61.54 83.47-30.95-66 147.46-67.56-50.09-223.13z"/><path fill="#7a75f6" d="M2463.25 969.33c-16.06-38.61-31.61-71.66-42.33-90.66-16.86-29.89-45-53.65-73.34-68.33-37.52 15.85-73.11 45.88-75.5 102.81l49 218-147.45 67.56L2237 1334l36.22 77.26c2.3-1.25 237.64-128.3 255.49-188.2 12.57-42.19-27.84-163.21-65.48-253.72Z"/><path fill="#4b49d1" d="M2484.1 1190.31c0 77.48-236.77 165.73-236.77 165.73l25.89 55.23s237.57-128 255.51-188.21c12.57-42.19-27.84-163.21-65.48-253.72.32 2.05 20.85 150.86 20.85 220.97Z"/><path fill="#8b311c" d="M2121.25 505.76s4.15 28.53 36.63 30.72 94.19-30.72 94.19-30.72-67.35 17.08-89.56 19.2c-17.35 1.66-41.26-19.2-41.26-19.2Z"/><path fill="#fe8b90" d="M1613.68 958.53c-23.25-12.91-33-21-46-44.73-.62-1.13-1.63-.7-1.18.57 9.22 25.94 23 34.36 46.87 44.93.49.22.77-.52.31-.77ZM1546.83 932.93c-.72-1.08-1.63-.18-1.06 1 12.54 25.47 26 34.18 50.22 47.29.35.19.69-.39.36-.61-23.35-15.34-33.89-24.25-49.52-47.68ZM1580.32 1001.67c-24.59-11.95-35.71-22.21-52.48-43.81-1-1.36-1.45-.9-.6.58 12.46 21.71 26.44 34.41 52.7 44.16a.5.5 0 0 0 .38-.93ZM1626.13 908.16a.1.1 0 0 0-.19 0c-4.94 19.53 13.11 34.13 25.82 46.21-11.48 13.88-19.3 35.83-10.8 52.55a.39.39 0 0 0 .72-.32c-5.7-16.36 4-37.92 13.65-51.21a1.56 1.56 0 0 0 .31-2.55c-12.21-11.99-30.8-25.73-29.51-44.68Z"/><path fill="#201352" d="m2272.37 621-10.43 36.66a256.31 256.31 0 0 1 64.16 34.33c1.44 0 1.92-.12 2.42-1.57s7.21-24.44 8-27.35 1.63-4.63 0-7.74a256.16 256.16 0 0 0-64.15-34.33Z"/><path fill="#201352" d="M2281.84 624c-3.9-1.89-35.16-10.89-35.16-10.89l-20.78 57.14s14.77 4 19.17 5a16.9 16.9 0 0 0 11.57-1.8c3.08-1.58 12.28-5.75 14-7a13.11 13.11 0 0 0 4.32-6.72c.76-2.78 8-22.4 8.93-25.76s1.85-8.05-2.05-9.97Z"/><path fill="#3c1688" d="m2234.49 596.61-95.91-25.44a23.19 23.19 0 0 0-28.37 16.47l-8.32 31.36a23.21 23.21 0 0 0 16.48 28.38l95.91 25.44a23.2 23.2 0 0 0 28.37-16.48L2251 625a23.19 23.19 0 0 0-16.51-28.39Z"/><path fill="#681bc5" d="m2223.05 593.57-108.84-28.87a16.51 16.51 0 0 0-20.2 11.73l-11.74 44.28a16.52 16.52 0 0 0 11.72 20.2l108.84 28.87a16.51 16.51 0 0 0 20.2-11.73l11.74-44.28a16.52 16.52 0 0 0-11.72-20.2Z"/><path fill="#9c7bd1" d="m2221.44 596-107.06-28.4a14.63 14.63 0 0 0-17.9 10.39l-11.28 42.51a14.64 14.64 0 0 0 10.4 17.9l107.06 28.4a14.63 14.63 0 0 0 17.9-10.39l11.28-42.51a14.64 14.64 0 0 0-10.4-17.9Z"/><path fill="#201352" d="m2208.42 602.14-39.85-10.57-19.92-5.29-16.16-4.28-14.29-3.79-1.93-.51a8.77 8.77 0 0 0-10.72 6.22l-9.56 36a8.78 8.78 0 0 0 6.23 10.72l39.65 10.52 14.3 3.79 16.17 4.29 19.91 5.28 2.13.57a8.77 8.77 0 0 0 10.72-6.22l9.55-36a8.76 8.76 0 0 0-6.23-10.73Z"/><ellipse cx="2289.75" cy="654.38" fill="#3c1688" rx="45.63" ry="32.74" transform="rotate(-66.61 2289.658 654.409)"/><path fill="#9c7bd1" d="M2307.45 632.12c-10-4.32-23 3.46-29 17.38s-2.8 28.7 7.19 33 23-3.46 29-17.38 2.8-28.68-7.19-33Z"/><path fill="#07e1f2" d="M2117.94 585.06a5.34 5.34 0 1 0 3.79 6.53 5.35 5.35 0 0 0-3.79-6.53Z"/><path fill="#f68a27" d="M2113.86 600.43a5.34 5.34 0 1 0 3.79 6.53 5.33 5.33 0 0 0-3.79-6.53Z"/><path fill="#682aee" d="m2148.66 586.28 23.67 62.96 19.91 5.28-23.67-62.95-19.91-5.29zM2132.49 581.99l-14.29-3.79 23.66 62.96 14.3 3.79-23.67-62.96z"/><path fill="#fff" d="M2777.9 2286.08c-.17 3.92 5.33 3.45 5.25-.44-.69-35.12 15.22-63.25 31-76.62l-3.34-4c-23.15 20.14-31.53 51.53-32.91 81.06ZM2691.92 2260.9a49.11 49.11 0 0 0-24.41 2.83 4.35 4.35 0 0 1-.8 1l-.09.07c-2.28 2.16.23 5.83 3.17 4.7a42.58 42.58 0 0 1 21-2.42c3.99.56 5.21-5.65 1.13-6.18ZM2686 2272.5a49.2 49.2 0 0 0-24.4 2.83 4.63 4.63 0 0 1-.8 1l-.09.08c-2.29 2.16.23 5.83 3.17 4.69a42.69 42.69 0 0 1 21-2.42c4.03.56 5.2-5.68 1.12-6.18ZM2677.33 2286.35a49.24 49.24 0 0 0-24.41 2.83 4.16 4.16 0 0 1-.8 1l-.08.08c-2.29 2.16.23 5.83 3.16 4.7a42.61 42.61 0 0 1 21-2.43c4 .56 5.17-5.65 1.13-6.18ZM2664.06 2299.08a49.13 49.13 0 0 0-24.41 2.82 4.16 4.16 0 0 1-.8 1 .6.6 0 0 0-.08.08c-2.29 2.16.23 5.83 3.16 4.7a42.46 42.46 0 0 1 21-2.42c3.99.55 5.17-5.66 1.13-6.18Z"/><circle cx="1942.78" cy="1430.56" r="211.48" fill="#ffa9ff" opacity=".5"/><circle cx="1942.78" cy="1430.56" r="175.7" fill="#ffa9ff" opacity=".5"/><circle cx="1942.78" cy="1430.56" r="69.65" fill="#ec098d" opacity=".5" transform="rotate(-45 1942.776 1430.556)"/><g opacity=".7"><path fill="#fad7e6" d="M1794.58 1426.41h17.3a130.35 130.35 0 0 1 29.55-78.82l-12.3-12.29a147.68 147.68 0 0 0-34.55 91.11ZM1854.32 1334.08a130.4 130.4 0 0 1 79.12-34.12v-17.33a147.66 147.66 0 0 0-91.36 39.22Z"/><path fill="#fad7e6" d="M1952.11 1300a130.45 130.45 0 0 1 79.13 34.12l12.23-12.23a147.7 147.7 0 0 0-91.36-39.23ZM2044.13 1347.59a130.4 130.4 0 0 1 29.54 78.82H2091a147.56 147.56 0 0 0-34.55-91.11ZM2039.25 1519l12.23 12.23a147.76 147.76 0 0 0 39-86.18H2073a130.5 130.5 0 0 1-33.75 73.95ZM1952.11 1561.15v17.34a147.62 147.62 0 0 0 85.89-34.29l-12.29-12.29a130.36 130.36 0 0 1-73.6 29.24Z" opacity=".78"/><path fill="#fad7e6" d="M1847.52 1544.2a147.57 147.57 0 0 0 85.92 34.29v-17.34a130.33 130.33 0 0 1-73.63-29.24ZM1795.11 1445.07a147.69 147.69 0 0 0 39 86.18l12.19-12.25a130.56 130.56 0 0 1-33.78-74Z"/></g><path fill="url(#c)" d="M1041.84 1735.44v656c0-66.65 247.29-128.24 648.71-161.57 28.36-2.35 58.11-4.16 87.34-6.18v-656c-29.23 2-59 3.82-87.34 6.17-401.42 33.32-648.71 94.92-648.71 161.58Z" opacity=".5"/><path fill="url(#b)" d="M1456.23 1922.85H1339.6a13.34 13.34 0 1 0 0 26.68h116.63a13.34 13.34 0 1 0 0-26.68Z"/><path style="mix-blend-mode:overlay" fill="url(#d)" d="M1145.64 1922.85h143.32v131.99h-143.32z" opacity=".78"/><path fill="url(#v)" d="M1599.55 1975.5h-260a13.35 13.35 0 0 0 0 26.69h260a13.35 13.35 0 0 0 0-26.69Z"/><rect width="286.64" height="26.68" x="1326.26" y="2028.16" fill="url(#w)" rx="13.34"/><path fill="url(#x)" d="M1041.84 1735.44v656c0 42.79 224.24 105.78 460.84 148.73v-656c-236.6-42.97-460.84-105.95-460.84-148.73Z" opacity=".5"/><g opacity=".31"><path fill="#fff" d="M3002.55 492.06a88.5 88.5 0 0 0-44.08-16.13l-148.08-12.45-51.89 86.71-47.34-4C2777.71 755.62 2885.24 1090.8 2973 1364l66.6-792a88.86 88.86 0 0 0-37.05-79.94ZM2354.64 516.42l-34.13-93.92-155.45-13.07a88.9 88.9 0 0 0-96 81.13l408.1 1864.88 320.71 27a88.91 88.91 0 0 0 96-81.15l23.24-276.42-406.93-1495.25Z" opacity=".3"/></g><path fill="#008cd1" d="m3132.49 1419.22-23.89 430c209.41 35.83 237.66 108.47 235.78 142.25l26-468.73c1.91-33.83-55.11-72.64-237.89-103.52Z" opacity=".45"/><path fill="#008cd1" d="m2620.75 1585.17-26 468.73c218.26-13 747.41-21.73 749.67-62.47l26-468.73c-2.27 40.73-531.42 49.44-749.67 62.47Z" opacity=".45"/><path d="m2620.75 1585.17-26 468.73c218.26-13 747.41-21.73 749.67-62.47l26-468.73c-2.27 40.73-531.42 49.44-749.67 62.47Z" style="mix-blend-mode:color-dodge" fill="url(#e)"/><path fill="#ec008c" d="m2618.87 959.45 153.77 32.45 72.64-149.37-146.7-32.87Zm222.88-115.22-70.47 144.9-148.74-31.39 77.32-145.3Z"/><path fill="#ec008c" d="m2560.85 846.31 59.84 114.9 79.91-150.15-59.84-114.9ZM2620.71 956l-57.11-109.67 77.13-144.94 57.11 109.66Z"/><path fill="#ec008c" d="m2641.02 697.59-.55 2.38 146.5 33.87 55.46 110.09 2.17-1.1-55.96-111.11-147.62-34.13zM2562.48 845.13l-.51 2.38 154.14 32.58 54.76 110.96 2.18-1.07-55.28-112.03-155.29-32.82z"/><path fill="#ec008c" d="M2671.74 804.68h160.86v2.44h-160.86z" transform="rotate(-64.02 2752.18 805.895)"/><path fill="#ec008c" d="M2715.3 870.62a7.58 7.58 0 1 0 7.58 7.58 7.58 7.58 0 0 0-7.58-7.58ZM2770.19 983.27a7.58 7.58 0 1 0 7.58 7.58 7.58 7.58 0 0 0-7.58-7.58Z"/><circle cx="2620.67" cy="958.49" r="7.58" fill="#ec008c"/><path fill="#ec008c" d="M2562.09 837.85a7.58 7.58 0 1 0 7.58 7.58 7.58 7.58 0 0 0-7.58-7.58ZM2641.15 692a7.58 7.58 0 1 0 7.58 7.58 7.58 7.58 0 0 0-7.58-7.58ZM2788.21 726.62a7.58 7.58 0 1 0 7.58 7.58 7.58 7.58 0 0 0-7.58-7.58ZM2699.12 803.63a7.58 7.58 0 1 0 7.58 7.58 7.58 7.58 0 0 0-7.58-7.58ZM2843.72 836.81a7.58 7.58 0 1 0 7.58 7.58 7.58 7.58 0 0 0-7.58-7.58ZM3238.91 1099.58a79.65 79.65 0 1 0 107.62 33.28 79.11 79.11 0 0 0-107.62-33.28Zm73 138.38a76.8 76.8 0 1 1 32.09-103.77 76.27 76.27 0 0 1-32.08 103.81Z"/><path fill="#ec008c" d="M3238.91 1099.58c-10.27 5.42-15.93 17.91-15.95 35.18 0 16.94 5.4 36.56 15.26 55.25 17 32.19 43 53.26 63.32 53.26a24.74 24.74 0 0 0 11.71-2.79c20.88-11 21.19-51.58.69-90.43s-54.16-61.49-75.03-50.47Zm73 138.38a22.3 22.3 0 0 1-10.61 2.52c-19.14 0-44.09-20.56-60.57-51.8-9.65-18.28-14.95-37.43-14.93-53.92 0-16.16 5.14-27.76 14.43-32.66a22.42 22.42 0 0 1 10.62-2.52c19.13 0 44.08 20.56 60.56 51.8 19.78 37.46 20 76.3.51 86.62Z"/><path fill="#ec008c" d="M3198.52 1168.74h155.9v2.85h-155.9z" transform="rotate(-27.84 3276.185 1170.143)"/><path fill="#ec008c" d="M3241.57 1181.67A8.22 8.22 0 1 0 3247 1192a8.22 8.22 0 0 0-5.43-10.33ZM3315.11 1142.87a8.22 8.22 0 1 0 5.42 10.28 8.22 8.22 0 0 0-5.42-10.28ZM3208.82 1199a8.22 8.22 0 1 0 5.42 10.28 8.22 8.22 0 0 0-5.42-10.28ZM3347.87 1125.58a8.22 8.22 0 1 0 5.42 10.28 8.22 8.22 0 0 0-5.42-10.28ZM3241.34 1093.76a8.22 8.22 0 1 0 5.43 10.28 8.22 8.22 0 0 0-5.43-10.28ZM3313.12 1229.81a8.22 8.22 0 1 0 5.43 10.28 8.22 8.22 0 0 0-5.43-10.28ZM2828 1248.15c-8.35-7.92-45.34 15.52-75.89 41.6s-59.52 58.93-53 68.42l.3.39c1.39 1.63 3.75 2.11 6.65 1.81 5.94-.62 14.17-4.47 21.11-8.31 14.19-7.84 31.4-20.18 48.47-34.75s32-29.64 41.94-42.42c7.26-9.3 15-21.42 10.78-26.39-.17-.12-.28-.24-.36-.35Zm-12 25.53c-9.9 12.68-24.7 27.64-41.67 42.12s-34.07 26.75-48.15 34.54c-13.28 7.34-22.74 9.93-25.29 6.94a1.84 1.84 0 0 1-.17-.22c-4.36-6.36 15.76-34.31 52.66-65.8 30.85-26.34 57.42-41.47 68.57-42.62 2.18-.23 3.78.08 4.69.95l.19.19c2.52 3-1.53 11.93-10.83 23.9Z"/><path fill="#ec008c" d="m2828.3 1248.5-.92-1-1.57 1.39.8.74.19.19.74-.63.4.46-.41-.45.75-.64ZM2948.25 1389.4c-8.5-5.25-40.79 12.89-75.12 42.19s-57.32 58.35-53.48 67.56a4.84 4.84 0 0 0 .77 1.25c1.39 1.63 3.74 2.1 6.64 1.8 5.94-.61 14.18-4.46 21.11-8.3 14.19-7.84 31.41-20.18 48.48-34.75 31.69-27.05 60.07-60.19 52.71-68.81a4.37 4.37 0 0 0-1.11-.94Zm-52.88 68.25c-17 14.48-34.08 26.74-48.16 34.53-13.28 7.34-22.74 9.93-25.29 6.94a2.54 2.54 0 0 1-.44-.73c-3-7.13 16.41-34.13 52.93-65.3 31.28-26.69 57.55-41.46 68.59-42.6a6.75 6.75 0 0 1 4.21.59 2.64 2.64 0 0 1 .65.54c5.06 5.93-14.86 33.88-52.49 66.03Z"/><path fill="#ec008c" d="M2826.8 1249.78c2.55 3-1.5 11.93-10.83 23.89-9.9 12.68-24.7 27.64-41.67 42.12s-34.07 26.75-48.15 34.54c-13.28 7.34-22.74 9.93-25.29 6.94l-.17-.21-.61-.92-1.82 1.55 121.2 142 .65.75 1.65-1.41-.28-.66c-3-7.13 16.41-34.13 52.93-65.3s66.23-46.07 72.8-42l.61.38 1.44-1.23-121-141.72Zm118.41 138.74c-11.58-.84-41 16.54-72.08 43.07-31.44 26.84-53.37 53.46-53.88 64.82l-116.11-136c5.91.71 15.83-3.82 24-8.32 14.19-7.84 31.4-20.18 48.47-34.75s32-29.64 41.94-42.42c5.6-7.17 11.49-16 11.95-22Z"/><path fill="#ec008c" d="M2832.85 1243a7.62 7.62 0 1 0-1 12.31 7.65 7.65 0 0 0 1-12.31ZM2694.88 1352.37a7.61 7.61 0 1 0 10.74.84 7.62 7.62 0 0 0-10.74-.84ZM2743.28 1331.69a7.62 7.62 0 1 0 10.74.85 7.62 7.62 0 0 0-10.74-.85ZM2815 1493.05a7.62 7.62 0 1 0 10.74.85 7.62 7.62 0 0 0-10.74-.85ZM2952.49 1384.08a7.62 7.62 0 1 0-1 12.31 7.65 7.65 0 0 0 1-12.31Z"/><path fill="#ec008c" d="M2808.31 1315.46h1.97v185.72h-1.97z" transform="rotate(-40.48 2809.413 1408.328)"/><path fill="#ec008c" d="M2829.91 1254h1.97v185.72h-1.97z" transform="rotate(-40.48 2831 1346.861)"/><path fill="#ec008c" d="M2886.5 1411.71a7.62 7.62 0 1 0 10.74.85 7.62 7.62 0 0 0-10.74-.85ZM2864.66 1472.88a7.62 7.62 0 1 0 10.74.85 7.62 7.62 0 0 0-10.74-.85ZM2765.45 1269.74a7.62 7.62 0 1 0 10.74.85 7.62 7.62 0 0 0-10.74-.85Z"/><path fill="url(#y)" d="M3145.08 691.21v368.65c135.44-19.4 214.75-45.94 214.75-74.15V617.05c0 28.21-79.31 54.75-214.75 74.16Z" opacity=".37"/><path fill="url(#z)" d="M2966.35 483.92c-12-1-24.62-1.71-36.84-2.61v397.9c12.22.9 24.87 1.62 36.84 2.61q52.49 4.36 99 9.74c184.48 21.28 294.46 53.64 294.46 88.27v-397.9c.02-40.43-149.97-77.8-393.46-98.01Z" opacity=".5"/><path d="M3294.7 1756.64h-339.65a9.84 9.84 0 1 0 0 19.67h339.65a9.84 9.84 0 1 0 0-19.67Z" style="mix-blend-mode:overlay" fill="url(#A)" opacity=".78"/><rect width="359.33" height="19.68" x="2945.21" y="1798.84" rx="9.84" style="mix-blend-mode:overlay" fill="url(#B)" opacity=".78"/><path d="M3107 1841h-152a9.84 9.84 0 0 0 0 19.68h152a9.84 9.84 0 1 0 0-19.68Z" style="mix-blend-mode:overlay" fill="url(#C)" opacity=".78"/><path d="M3107 1883.25h-152a9.84 9.84 0 1 0 0 19.67h152a9.84 9.84 0 1 0 0-19.67Z" style="mix-blend-mode:overlay" fill="url(#D)" opacity=".78"/><circle cx="2778.01" cy="1818.52" r="117.81" transform="rotate(-15.48 2778.38 1818.68)" style="mix-blend-mode:overlay" fill="url(#E)" opacity=".78"/><g opacity=".5"><circle cx="1641.13" cy="795.25" r="227.54" fill="#00c3e4" opacity=".37"/><circle cx="1641.13" cy="795.25" r="189.05" fill="#00c3e4" opacity=".37" transform="rotate(-45 1641.133 795.25)"/><circle cx="1641.13" cy="795.25" r="156.18" fill="#00c3e4" transform="rotate(-45 1641.133 795.25)" style="mix-blend-mode:multiply" opacity=".3"/><circle cx="1641.13" cy="795.25" r="156.18" fill="#00c3e4" transform="rotate(-45 1641.133 795.25)" style="mix-blend-mode:multiply" opacity=".37"/><g clip-path="url(#F)"><path fill="#00c3e4" d="m1720.81 821.93-.43-.91.43.91zM1831.25 687.31l-32.68 10.26-7.29-5.54-16.2 3.79-.14-7.03 12.29-5.26-3.78-10.54-8.1 1.08-6.48 5.56-12.83-1.78-1.63 8.28-3.51 8.34 5.14 5.94-9.59.94-5-15.22-8.51 16.03-7.29-6.75-1.35 9.32 5.81 7.02 5.8 2.7 7.7 10.17-3.37 7.66-11.89 4.72-2.97 5.67-5.26 4.73 1.07-7.7-4.18-4.59 3.51-6.08-2.63-10.39-9.52 4.86-3.78 7.43-4.87-6.31-3.1 11.03-8.38 5.81v5.67l6.62 3.24 4.73-.81 6.07 1.89-1.75 2.57-4.86.67-6.08 5.14 7.16-.55 12.83 10.94 3.37 8.65 5.54 4.59 1.89 9.99 6.08-7.02 15.53 1.62 2.16 9.59-7.97 6.88-3.92-4.99-4.59.54 2.97 7.16-7.63.53-.6 8.51-7.07 1.24-2.66-5.63h-12.15l-12.56 8.31-7.7 2.53-2.63 5.37-23.5 8.3v5.11l5.67 5.23 2.44 11.97 9.31 3.22 32.75 49.69-6.62 9.73h4.66l9.73-7.36-4.26-25.73-3.04-32.82 9.52-6.68 8.71-15.01-5.58-11.81-.43-.91.43.91 5.58-1.88 4.53-5.4 3.78-.81 5.13-4.72 9.32-.95 2.29-3.38 6.62-4.72 7.29-11.37 9.73-6.46 8.78-13.77-2.57-14.32 6.48-11.48 9.72-4.59 6.49-12.83 15.12-2.56 2.97 6.34 6.35 4.06 10.67-5.68 2.29-7.56-4.45-11.48 4.45-7.56-10.13-13.5z" opacity=".5"/><path d="m1718.19 676.88-1.22 5-9.92 9-1.42 7.5-9.92 7.9 3.14 2.83 6.48-1.31-4.86 9.31 1.82 5.07 12.36-14.79s.3-8.1.6-8.2 7.3-7 7.3-7l9 1.21 4.46-5-3.74-12.4Z" style="mix-blend-mode:multiply" fill="#00c3e4" opacity=".37"/><path fill="#00c3e4" d="m1644.5 631.79-8.92 32.83 6.21 12.96v16.48l18.64 13.5 14.04 18.91 11.07-18.37 1.35-24.84 8.82-16.37 10.36-2 6.21-9.45-2.16-7.11-65.62-16.54zM1624.1 782.11l-26.94-7.7-1.41 7.49-11 3.45-2.75-3.45-18.84 3.65-3.18-8.17 15-2.16s12.7-7.56 13.31-8 5.19-5.8 5.19-5.8l15 4.86 6.08 7 9.18 1.89 2.84-7.7s-6.48-5.26-7-5.13-6.35.27-6.35.27l3-7.56 2.43-3.11-12.15-5-4.19-7.16-12 1.75-.27-5.26 9-4.05 8.24-3.65-1.08-8.64-12.43-9.73-8-14.58-3.78-6.21-14.18 1.21-9.86 9.86-6.62.27-16.88-1.35-14.31-9.05-11.35-14.18h-9.85s-8.11-8-9.05-8.37-11.89-6.62-11.89-6.62l-10.39-5-9.86 3.91-5.4 6.08 7.15 7.83-9.18 3.65-15.26.81-2.16 7.6-8.1 1.58-8-5.13-9.32.14-10.4 3.41-5.94 5-9.59.27-11.34 2.29-8.78 4.73-9.72 7-2.43 4.08 7 6.62 5.13-3.1 5.27 5 3.37 4.73 8.92 3.37 7.16-.54 15.25.14 12.29 3.65 7.57 7.69-5.81 7.43 6.62 16.75-7-5.81-5.67-.27 4.59 4.46-.94 3.91 3 5.27s.4 4.86.4 5.8 6.49 5.81 6.49 5.81l6.07 2.3 3.38 4.59 3.51 5 .54-3.54L1435 781l-9.18-4.46-5.81-4.73-1.89-8.5 10.13 1.35 5.13 3.37.68 5.94 3.24 3.92 1.75-3.11 1.62-4.59 4.46-.4 2 5-2.83 8.78.27 11.42 11.88 4.11 6.75.68 2.3 5-4.46 5.54.54 6.75 6.89 3.78 15.4-21.54 9.72 7.09 6.08 9.32 12-11.14 13.77-12.15h14.18l-11.75 8.91 18 8.51 16.81-13.17-10.53 16.1h-12.56l16 19.85-2.83 15.23 9.72 10 7.29 18 16 5.18 12.55-25.43-5.67-13.07 6.28-6.38-1.82-6.89 5.67-6.58 14.18 2.53 13.77-3.32 6.08-16.73-7.7-11.14Z" opacity=".5"/><path d="m1551.08 853-7.2-7.59-1.41 3.75 3.74 13.77 2.64 3.75 3.24-3.75-1.01-5.37V853z" style="mix-blend-mode:multiply" fill="#00c3e4" opacity=".37"/><path fill="#00c3e4" d="m1454.35 861.92-7.7-4.05-2.43-.41-1.21-3.51-5.67-4.86-2.71 2.56-1.61-5.53-10.67.54 2.16 3.37-6.21 4.33-1.22-7.7-2.3-1.89-6.88 13.1-7.84 6.34-.94 9.32 4.19 4.59 1.21 6.89 10.4 4.19 3.78-3.92 12.56-9.59 18.9 6.89 3.79-2.7-.14-7.84 3.65-6.21-3.11-3.91zM1372.72 887.44v-6.99l-5.88 2.97-1.41 3.82 7.29 9.52 9.42 7.29 1.11-3.44-3.54-3.55-6.99-9.62zM1457.46 839.5c-.81.27-13 .54-13 .54l-14.18.41 13.51 4.32 19-3.27 3.65-3.76 8.37-4 9-16.66-17 15s-8.54 7.15-9.35 7.42Z"/><path fill="#00c3e4" d="m1447.46 822.72 2.03 1.93-2.03 3.78 4.06 7.42 8.77-2.11 2.16-5.31-11.61-7.57-3.38 1.86zM1440.04 826.81l2.29 5.83-2.29 3.48 1.08 1.02 3.17-1.83.47 1.83h2.7l-.94-6.22-6.48-4.11zM1426.46 831.97l-.4 2.4-4.79-1.73-10.94 3.48-2.23 4.6-6.15 1.85 3.92 1.32 5.6-3.31 3.11 1.99 5.88-.64 4.12-5.6 4.59-.81 2.09-3.55 2.36-1.05-1.82-1.35-5.34 2.4zM1434.3 827.35l1.08 6.75 2.9-2.13-1.62-5.77-2.36 1.15zM1447.46 808.17l-2.76-4.66-2.57 1.22.78 4.18-2.87 1.15-4.19 9.45 3.17 2.77 1.76-1.96 4.19 1.96-2.3-3.78 1.08-3.85 5.34 4.8.87-.81-3.88-5.85 1.38-4.62z"/></g><circle cx="1641.13" cy="795.25" r="227.54" fill="#00c3e4" opacity=".37"/><circle cx="1641.13" cy="795.25" r="189.05" fill="#00c3e4" opacity=".37" transform="rotate(-45 1641.133 795.25)"/><circle cx="1641.13" cy="795.25" r="156.18" fill="#00c3e4" transform="rotate(-45 1641.133 795.25)" style="mix-blend-mode:multiply" opacity=".3"/><circle cx="1641.13" cy="795.25" r="156.18" fill="#00c3e4" transform="rotate(-45 1641.133 795.25)" style="mix-blend-mode:multiply" opacity=".37"/><g clip-path="url(#F)"><path fill="#00c3e4" d="m1720.81 821.93-.43-.91.43.91zM1831.25 687.31l-32.68 10.26-7.29-5.54-16.2 3.79-.14-7.03 12.29-5.26-3.78-10.54-8.1 1.08-6.48 5.56-12.83-1.78-1.63 8.28-3.51 8.34 5.14 5.94-9.59.94-5-15.22-8.51 16.03-7.29-6.75-1.35 9.32 5.81 7.02 5.8 2.7 7.7 10.17-3.37 7.66-11.89 4.72-2.97 5.67-5.26 4.73 1.07-7.7-4.18-4.59 3.51-6.08-2.63-10.39-9.52 4.86-3.78 7.43-4.87-6.31-3.1 11.03-8.38 5.81v5.67l6.62 3.24 4.73-.81 6.07 1.89-1.75 2.57-4.86.67-6.08 5.14 7.16-.55 12.83 10.94 3.37 8.65 5.54 4.59 1.89 9.99 6.08-7.02 15.53 1.62 2.16 9.59-7.97 6.88-3.92-4.99-4.59.54 2.97 7.16-7.63.53-.6 8.51-7.07 1.24-2.66-5.63h-12.15l-12.56 8.31-7.7 2.53-2.63 5.37-23.5 8.3v5.11l5.67 5.23 2.44 11.97 9.31 3.22 32.75 49.69-6.62 9.73h4.66l9.73-7.36-4.26-25.73-3.04-32.82 9.52-6.68 8.71-15.01-5.58-11.81-.43-.91.43.91 5.58-1.88 4.53-5.4 3.78-.81 5.13-4.72 9.32-.95 2.29-3.38 6.62-4.72 7.29-11.37 9.73-6.46 8.78-13.77-2.57-14.32 6.48-11.48 9.72-4.59 6.49-12.83 15.12-2.56 2.97 6.34 6.35 4.06 10.67-5.68 2.29-7.56-4.45-11.48 4.45-7.56-10.13-13.5z" opacity=".5"/><path d="m1718.19 676.88-1.22 5-9.92 9-1.42 7.5-9.92 7.9 3.14 2.83 6.48-1.31-4.86 9.31 1.82 5.07 12.36-14.79s.3-8.1.6-8.2 7.3-7 7.3-7l9 1.21 4.46-5-3.74-12.4Z" style="mix-blend-mode:multiply" fill="#00c3e4" opacity=".37"/><path fill="#00c3e4" d="m1644.5 631.79-8.92 32.83 6.21 12.96v16.48l18.64 13.5 14.04 18.91 11.07-18.37 1.35-24.84 8.82-16.37 10.36-2 6.21-9.45-2.16-7.11-65.62-16.54zM1624.1 782.11l-26.94-7.7-1.41 7.49-11 3.45-2.75-3.45-18.84 3.65-3.18-8.17 15-2.16s12.7-7.56 13.31-8 5.19-5.8 5.19-5.8l15 4.86 6.08 7 9.18 1.89 2.84-7.7s-6.48-5.26-7-5.13-6.35.27-6.35.27l3-7.56 2.43-3.11-12.15-5-4.19-7.16-12 1.75-.27-5.26 9-4.05 8.24-3.65-1.08-8.64-12.43-9.73-8-14.58-3.78-6.21-14.18 1.21-9.86 9.86-6.62.27-16.88-1.35-14.31-9.05-11.35-14.18h-9.85s-8.11-8-9.05-8.37-11.89-6.62-11.89-6.62l-10.39-5-9.86 3.91-5.4 6.08 7.15 7.83-9.18 3.65-15.26.81-2.16 7.6-8.1 1.58-8-5.13-9.32.14-10.4 3.41-5.94 5-9.59.27-11.34 2.29-8.78 4.73-9.72 7-2.43 4.08 7 6.62 5.13-3.1 5.27 5 3.37 4.73 8.92 3.37 7.16-.54 15.25.14 12.29 3.65 7.57 7.69-5.81 7.43 6.62 16.75-7-5.81-5.67-.27 4.59 4.46-.94 3.91 3 5.27s.4 4.86.4 5.8 6.49 5.81 6.49 5.81l6.07 2.3 3.38 4.59 3.51 5 .54-3.54L1435 781l-9.18-4.46-5.81-4.73-1.89-8.5 10.13 1.35 5.13 3.37.68 5.94 3.24 3.92 1.75-3.11 1.62-4.59 4.46-.4 2 5-2.83 8.78.27 11.42 11.88 4.11 6.75.68 2.3 5-4.46 5.54.54 6.75 6.89 3.78 15.4-21.54 9.72 7.09 6.08 9.32 12-11.14 13.77-12.15h14.18l-11.75 8.91 18 8.51 16.81-13.17-10.53 16.1h-12.56l16 19.85-2.83 15.23 9.72 10 7.29 18 16 5.18 12.55-25.43-5.67-13.07 6.28-6.38-1.82-6.89 5.67-6.58 14.18 2.53 13.77-3.32 6.08-16.73-7.7-11.14Z" opacity=".5"/><path d="m1551.08 853-7.2-7.59-1.41 3.75 3.74 13.77 2.64 3.75 3.24-3.75-1.01-5.37V853z" style="mix-blend-mode:multiply" fill="#00c3e4" opacity=".37"/><path fill="#00c3e4" d="m1454.35 861.92-7.7-4.05-2.43-.41-1.21-3.51-5.67-4.86-2.71 2.56-1.61-5.53-10.67.54 2.16 3.37-6.21 4.33-1.22-7.7-2.3-1.89-6.88 13.1-7.84 6.34-.94 9.32 4.19 4.59 1.21 6.89 10.4 4.19 3.78-3.92 12.56-9.59 18.9 6.89 3.79-2.7-.14-7.84 3.65-6.21-3.11-3.91zM1372.72 887.44v-6.99l-5.88 2.97-1.41 3.82 7.29 9.52 9.42 7.29 1.11-3.44-3.54-3.55-6.99-9.62zM1457.46 839.5c-.81.27-13 .54-13 .54l-14.18.41 13.51 4.32 19-3.27 3.65-3.76 8.37-4 9-16.66-17 15s-8.54 7.15-9.35 7.42Z"/><path fill="#00c3e4" d="m1447.46 822.72 2.03 1.93-2.03 3.78 4.06 7.42 8.77-2.11 2.16-5.31-11.61-7.57-3.38 1.86zM1440.04 826.81l2.29 5.83-2.29 3.48 1.08 1.02 3.17-1.83.47 1.83h2.7l-.94-6.22-6.48-4.11zM1426.46 831.97l-.4 2.4-4.79-1.73-10.94 3.48-2.23 4.6-6.15 1.85 3.92 1.32 5.6-3.31 3.11 1.99 5.88-.64 4.12-5.6 4.59-.81 2.09-3.55 2.36-1.05-1.82-1.35-5.34 2.4zM1434.3 827.35l1.08 6.75 2.9-2.13-1.62-5.77-2.36 1.15zM1447.46 808.17l-2.76-4.66-2.57 1.22.78 4.18-2.87 1.15-4.19 9.45 3.17 2.77 1.76-1.96 4.19 1.96-2.3-3.78 1.08-3.85 5.34 4.8.87-.81-3.88-5.85 1.38-4.62z"/></g></g><g opacity=".5"><circle cx="1641.13" cy="795.25" r="227.54" fill="#00c3e4" opacity=".37"/><circle cx="1641.13" cy="795.25" r="189.05" fill="#00c3e4" opacity=".37" transform="rotate(-45 1641.133 795.25)"/><circle cx="1641.13" cy="795.25" r="156.18" fill="#00c3e4" transform="rotate(-45 1641.133 795.25)" style="mix-blend-mode:multiply" opacity=".3"/><circle cx="1641.13" cy="795.25" r="156.18" fill="#00c3e4" transform="rotate(-45 1641.133 795.25)" style="mix-blend-mode:multiply" opacity=".37"/><g clip-path="url(#F)"><path fill="#00c3e4" d="m1720.81 821.93-.43-.91.43.91zM1831.25 687.31l-32.68 10.26-7.29-5.54-16.2 3.79-.14-7.03 12.29-5.26-3.78-10.54-8.1 1.08-6.48 5.56-12.83-1.78-1.63 8.28-3.51 8.34 5.14 5.94-9.59.94-5-15.22-8.51 16.03-7.29-6.75-1.35 9.32 5.81 7.02 5.8 2.7 7.7 10.17-3.37 7.66-11.89 4.72-2.97 5.67-5.26 4.73 1.07-7.7-4.18-4.59 3.51-6.08-2.63-10.39-9.52 4.86-3.78 7.43-4.87-6.31-3.1 11.03-8.38 5.81v5.67l6.62 3.24 4.73-.81 6.07 1.89-1.75 2.57-4.86.67-6.08 5.14 7.16-.55 12.83 10.94 3.37 8.65 5.54 4.59 1.89 9.99 6.08-7.02 15.53 1.62 2.16 9.59-7.97 6.88-3.92-4.99-4.59.54 2.97 7.16-7.63.53-.6 8.51-7.07 1.24-2.66-5.63h-12.15l-12.56 8.31-7.7 2.53-2.63 5.37-23.5 8.3v5.11l5.67 5.23 2.44 11.97 9.31 3.22 32.75 49.69-6.62 9.73h4.66l9.73-7.36-4.26-25.73-3.04-32.82 9.52-6.68 8.71-15.01-5.58-11.81-.43-.91.43.91 5.58-1.88 4.53-5.4 3.78-.81 5.13-4.72 9.32-.95 2.29-3.38 6.62-4.72 7.29-11.37 9.73-6.46 8.78-13.77-2.57-14.32 6.48-11.48 9.72-4.59 6.49-12.83 15.12-2.56 2.97 6.34 6.35 4.06 10.67-5.68 2.29-7.56-4.45-11.48 4.45-7.56-10.13-13.5z" opacity=".5"/><path d="m1718.19 676.88-1.22 5-9.92 9-1.42 7.5-9.92 7.9 3.14 2.83 6.48-1.31-4.86 9.31 1.82 5.07 12.36-14.79s.3-8.1.6-8.2 7.3-7 7.3-7l9 1.21 4.46-5-3.74-12.4Z" style="mix-blend-mode:multiply" fill="#00c3e4" opacity=".37"/><path fill="#00c3e4" d="m1644.5 631.79-8.92 32.83 6.21 12.96v16.48l18.64 13.5 14.04 18.91 11.07-18.37 1.35-24.84 8.82-16.37 10.36-2 6.21-9.45-2.16-7.11-65.62-16.54zM1624.1 782.11l-26.94-7.7-1.41 7.49-11 3.45-2.75-3.45-18.84 3.65-3.18-8.17 15-2.16s12.7-7.56 13.31-8 5.19-5.8 5.19-5.8l15 4.86 6.08 7 9.18 1.89 2.84-7.7s-6.48-5.26-7-5.13-6.35.27-6.35.27l3-7.56 2.43-3.11-12.15-5-4.19-7.16-12 1.75-.27-5.26 9-4.05 8.24-3.65-1.08-8.64-12.43-9.73-8-14.58-3.78-6.21-14.18 1.21-9.86 9.86-6.62.27-16.88-1.35-14.31-9.05-11.35-14.18h-9.85s-8.11-8-9.05-8.37-11.89-6.62-11.89-6.62l-10.39-5-9.86 3.91-5.4 6.08 7.15 7.83-9.18 3.65-15.26.81-2.16 7.6-8.1 1.58-8-5.13-9.32.14-10.4 3.41-5.94 5-9.59.27-11.34 2.29-8.78 4.73-9.72 7-2.43 4.08 7 6.62 5.13-3.1 5.27 5 3.37 4.73 8.92 3.37 7.16-.54 15.25.14 12.29 3.65 7.57 7.69-5.81 7.43 6.62 16.75-7-5.81-5.67-.27 4.59 4.46-.94 3.91 3 5.27s.4 4.86.4 5.8 6.49 5.81 6.49 5.81l6.07 2.3 3.38 4.59 3.51 5 .54-3.54L1435 781l-9.18-4.46-5.81-4.73-1.89-8.5 10.13 1.35 5.13 3.37.68 5.94 3.24 3.92 1.75-3.11 1.62-4.59 4.46-.4 2 5-2.83 8.78.27 11.42 11.88 4.11 6.75.68 2.3 5-4.46 5.54.54 6.75 6.89 3.78 15.4-21.54 9.72 7.09 6.08 9.32 12-11.14 13.77-12.15h14.18l-11.75 8.91 18 8.51 16.81-13.17-10.53 16.1h-12.56l16 19.85-2.83 15.23 9.72 10 7.29 18 16 5.18 12.55-25.43-5.67-13.07 6.28-6.38-1.82-6.89 5.67-6.58 14.18 2.53 13.77-3.32 6.08-16.73-7.7-11.14Z" opacity=".5"/><path d="m1551.08 853-7.2-7.59-1.41 3.75 3.74 13.77 2.64 3.75 3.24-3.75-1.01-5.37V853z" style="mix-blend-mode:multiply" fill="#00c3e4" opacity=".37"/><path fill="#00c3e4" d="m1454.35 861.92-7.7-4.05-2.43-.41-1.21-3.51-5.67-4.86-2.71 2.56-1.61-5.53-10.67.54 2.16 3.37-6.21 4.33-1.22-7.7-2.3-1.89-6.88 13.1-7.84 6.34-.94 9.32 4.19 4.59 1.21 6.89 10.4 4.19 3.78-3.92 12.56-9.59 18.9 6.89 3.79-2.7-.14-7.84 3.65-6.21-3.11-3.91zM1372.72 887.44v-6.99l-5.88 2.97-1.41 3.82 7.29 9.52 9.42 7.29 1.11-3.44-3.54-3.55-6.99-9.62zM1457.46 839.5c-.81.27-13 .54-13 .54l-14.18.41 13.51 4.32 19-3.27 3.65-3.76 8.37-4 9-16.66-17 15s-8.54 7.15-9.35 7.42Z"/><path fill="#00c3e4" d="m1447.46 822.72 2.03 1.93-2.03 3.78 4.06 7.42 8.77-2.11 2.16-5.31-11.61-7.57-3.38 1.86zM1440.04 826.81l2.29 5.83-2.29 3.48 1.08 1.02 3.17-1.83.47 1.83h2.7l-.94-6.22-6.48-4.11zM1426.46 831.97l-.4 2.4-4.79-1.73-10.94 3.48-2.23 4.6-6.15 1.85 3.92 1.32 5.6-3.31 3.11 1.99 5.88-.64 4.12-5.6 4.59-.81 2.09-3.55 2.36-1.05-1.82-1.35-5.34 2.4zM1434.3 827.35l1.08 6.75 2.9-2.13-1.62-5.77-2.36 1.15zM1447.46 808.17l-2.76-4.66-2.57 1.22.78 4.18-2.87 1.15-4.19 9.45 3.17 2.77 1.76-1.96 4.19 1.96-2.3-3.78 1.08-3.85 5.34 4.8.87-.81-3.88-5.85 1.38-4.62z"/></g><circle cx="1641.13" cy="795.25" r="227.54" fill="#00c3e4" opacity=".37"/><circle cx="1641.13" cy="795.25" r="189.05" fill="#00c3e4" opacity=".37" transform="rotate(-45 1641.133 795.25)"/><circle cx="1641.13" cy="795.25" r="156.18" fill="#00c3e4" transform="rotate(-45 1641.133 795.25)" style="mix-blend-mode:multiply" opacity=".3"/><circle cx="1641.13" cy="795.25" r="156.18" fill="#00c3e4" transform="rotate(-45 1641.133 795.25)" style="mix-blend-mode:multiply" opacity=".37"/><g clip-path="url(#F)"><path fill="#00c3e4" d="m1720.81 821.93-.43-.91.43.91zM1831.25 687.31l-32.68 10.26-7.29-5.54-16.2 3.79-.14-7.03 12.29-5.26-3.78-10.54-8.1 1.08-6.48 5.56-12.83-1.78-1.63 8.28-3.51 8.34 5.14 5.94-9.59.94-5-15.22-8.51 16.03-7.29-6.75-1.35 9.32 5.81 7.02 5.8 2.7 7.7 10.17-3.37 7.66-11.89 4.72-2.97 5.67-5.26 4.73 1.07-7.7-4.18-4.59 3.51-6.08-2.63-10.39-9.52 4.86-3.78 7.43-4.87-6.31-3.1 11.03-8.38 5.81v5.67l6.62 3.24 4.73-.81 6.07 1.89-1.75 2.57-4.86.67-6.08 5.14 7.16-.55 12.83 10.94 3.37 8.65 5.54 4.59 1.89 9.99 6.08-7.02 15.53 1.62 2.16 9.59-7.97 6.88-3.92-4.99-4.59.54 2.97 7.16-7.63.53-.6 8.51-7.07 1.24-2.66-5.63h-12.15l-12.56 8.31-7.7 2.53-2.63 5.37-23.5 8.3v5.11l5.67 5.23 2.44 11.97 9.31 3.22 32.75 49.69-6.62 9.73h4.66l9.73-7.36-4.26-25.73-3.04-32.82 9.52-6.68 8.71-15.01-5.58-11.81-.43-.91.43.91 5.58-1.88 4.53-5.4 3.78-.81 5.13-4.72 9.32-.95 2.29-3.38 6.62-4.72 7.29-11.37 9.73-6.46 8.78-13.77-2.57-14.32 6.48-11.48 9.72-4.59 6.49-12.83 15.12-2.56 2.97 6.34 6.35 4.06 10.67-5.68 2.29-7.56-4.45-11.48 4.45-7.56-10.13-13.5z" opacity=".5"/><path d="m1718.19 676.88-1.22 5-9.92 9-1.42 7.5-9.92 7.9 3.14 2.83 6.48-1.31-4.86 9.31 1.82 5.07 12.36-14.79s.3-8.1.6-8.2 7.3-7 7.3-7l9 1.21 4.46-5-3.74-12.4Z" style="mix-blend-mode:multiply" fill="#00c3e4" opacity=".37"/><path fill="#00c3e4" d="m1644.5 631.79-8.92 32.83 6.21 12.96v16.48l18.64 13.5 14.04 18.91 11.07-18.37 1.35-24.84 8.82-16.37 10.36-2 6.21-9.45-2.16-7.11-65.62-16.54zM1624.1 782.11l-26.94-7.7-1.41 7.49-11 3.45-2.75-3.45-18.84 3.65-3.18-8.17 15-2.16s12.7-7.56 13.31-8 5.19-5.8 5.19-5.8l15 4.86 6.08 7 9.18 1.89 2.84-7.7s-6.48-5.26-7-5.13-6.35.27-6.35.27l3-7.56 2.43-3.11-12.15-5-4.19-7.16-12 1.75-.27-5.26 9-4.05 8.24-3.65-1.08-8.64-12.43-9.73-8-14.58-3.78-6.21-14.18 1.21-9.86 9.86-6.62.27-16.88-1.35-14.31-9.05-11.35-14.18h-9.85s-8.11-8-9.05-8.37-11.89-6.62-11.89-6.62l-10.39-5-9.86 3.91-5.4 6.08 7.15 7.83-9.18 3.65-15.26.81-2.16 7.6-8.1 1.58-8-5.13-9.32.14-10.4 3.41-5.94 5-9.59.27-11.34 2.29-8.78 4.73-9.72 7-2.43 4.08 7 6.62 5.13-3.1 5.27 5 3.37 4.73 8.92 3.37 7.16-.54 15.25.14 12.29 3.65 7.57 7.69-5.81 7.43 6.62 16.75-7-5.81-5.67-.27 4.59 4.46-.94 3.91 3 5.27s.4 4.86.4 5.8 6.49 5.81 6.49 5.81l6.07 2.3 3.38 4.59 3.51 5 .54-3.54L1435 781l-9.18-4.46-5.81-4.73-1.89-8.5 10.13 1.35 5.13 3.37.68 5.94 3.24 3.92 1.75-3.11 1.62-4.59 4.46-.4 2 5-2.83 8.78.27 11.42 11.88 4.11 6.75.68 2.3 5-4.46 5.54.54 6.75 6.89 3.78 15.4-21.54 9.72 7.09 6.08 9.32 12-11.14 13.77-12.15h14.18l-11.75 8.91 18 8.51 16.81-13.17-10.53 16.1h-12.56l16 19.85-2.83 15.23 9.72 10 7.29 18 16 5.18 12.55-25.43-5.67-13.07 6.28-6.38-1.82-6.89 5.67-6.58 14.18 2.53 13.77-3.32 6.08-16.73-7.7-11.14Z" opacity=".5"/><path d="m1551.08 853-7.2-7.59-1.41 3.75 3.74 13.77 2.64 3.75 3.24-3.75-1.01-5.37V853z" style="mix-blend-mode:multiply" fill="#00c3e4" opacity=".37"/><path fill="#00c3e4" d="m1454.35 861.92-7.7-4.05-2.43-.41-1.21-3.51-5.67-4.86-2.71 2.56-1.61-5.53-10.67.54 2.16 3.37-6.21 4.33-1.22-7.7-2.3-1.89-6.88 13.1-7.84 6.34-.94 9.32 4.19 4.59 1.21 6.89 10.4 4.19 3.78-3.92 12.56-9.59 18.9 6.89 3.79-2.7-.14-7.84 3.65-6.21-3.11-3.91zM1372.72 887.44v-6.99l-5.88 2.97-1.41 3.82 7.29 9.52 9.42 7.29 1.11-3.44-3.54-3.55-6.99-9.62zM1457.46 839.5c-.81.27-13 .54-13 .54l-14.18.41 13.51 4.32 19-3.27 3.65-3.76 8.37-4 9-16.66-17 15s-8.54 7.15-9.35 7.42Z"/><path fill="#00c3e4" d="m1447.46 822.72 2.03 1.93-2.03 3.78 4.06 7.42 8.77-2.11 2.16-5.31-11.61-7.57-3.38 1.86zM1440.04 826.81l2.29 5.83-2.29 3.48 1.08 1.02 3.17-1.83.47 1.83h2.7l-.94-6.22-6.48-4.11zM1426.46 831.97l-.4 2.4-4.79-1.73-10.94 3.48-2.23 4.6-6.15 1.85 3.92 1.32 5.6-3.31 3.11 1.99 5.88-.64 4.12-5.6 4.59-.81 2.09-3.55 2.36-1.05-1.82-1.35-5.34 2.4zM1434.3 827.35l1.08 6.75 2.9-2.13-1.62-5.77-2.36 1.15zM1447.46 808.17l-2.76-4.66-2.57 1.22.78 4.18-2.87 1.15-4.19 9.45 3.17 2.77 1.76-1.96 4.19 1.96-2.3-3.78 1.08-3.85 5.34 4.8.87-.81-3.88-5.85 1.38-4.62z"/></g></g><g clip-path="url(#G)"><path d="m1318.29 571.69-26 468.74c218.26-13 747.41-21.74 749.67-62.47l26-468.74c-2.27 40.78-531.41 49.45-749.67 62.47Z" style="mix-blend-mode:color-dodge" fill="url(#H)"/></g></g></svg>